<svg width="195" height="212" viewBox="0 0 195 212" fill="none" xmlns="http://www.w3.org/2000/svg">
<ellipse cx="118.019" cy="65.1864" rx="11" ry="42.5" transform="rotate(16.3658 118.019 65.1864)" fill="#FF8DEA"/>
<ellipse cx="146.799" cy="118.535" rx="11" ry="42.5" transform="rotate(105.586 146.799 118.535)" fill="#FF8DEA"/>
<ellipse cx="93.583" cy="146.74" rx="11" ry="42.5" transform="rotate(-162.914 93.583 146.74)" fill="#FF8DEA"/>
<ellipse cx="126.869" cy="137.824" rx="11" ry="42.5" transform="rotate(151.035 126.869 137.824)" fill="#F2BBF1"/>
<ellipse cx="144.004" cy="85.528" rx="11" ry="42.5" transform="rotate(66.4767 144.004 85.528)" fill="#F2BBF1"/>
<ellipse cx="88.0871" cy="68.6308" rx="11" ry="42.5" transform="rotate(155.211 88.0871 68.6308)" fill="#F9ACF7"/>
<ellipse cx="69.9359" cy="122.106" rx="11" ry="42.5" transform="rotate(64.2501 69.9359 122.106)" fill="#F2BBF1"/>
<ellipse cx="66.37" cy="90.7497" rx="11" ry="42.5" transform="rotate(-74.4185 66.37 90.7497)" fill="#FF8DEA"/>
<ellipse cx="106.748" cy="103.566" rx="8" ry="8.5" transform="rotate(16.3658 106.748 103.566)" fill="#E9FF42"/>
</svg>
