<svg width="316" height="82" viewBox="0 0 316 82" fill="none" xmlns="http://www.w3.org/2000/svg">
<path d="M31 0H290L315.5 42L290 82H31L0 42L31 0Z" fill="#3FDCFF"/>
<path d="M66.7344 26.8281C67.625 27.0391 68.4219 27.2031 69.125 27.3203C69.8516 27.4141 70.4609 27.4844 70.9531 27.5312C71.5391 27.6016 72.0547 27.625 72.5 27.6016C73.0625 27.5781 73.7656 27.4961 74.6094 27.3555C75.4531 27.2148 76.3438 27.0742 77.2812 26.9336C78.2188 26.793 79.1445 26.6758 80.0586 26.582C80.9727 26.4883 81.7695 26.4766 82.4492 26.5469C83.1289 26.6172 83.8438 26.7812 84.5938 27.0391C85.3438 27.2734 86.0469 27.6016 86.7031 28.0234C87.3594 28.4219 87.9219 28.9141 88.3906 29.5C88.8828 30.0859 89.1875 30.7656 89.3047 31.5391C89.4219 32.2891 89.3516 33.0977 89.0938 33.9648C88.8359 34.8086 88.4258 35.6406 87.8633 36.4609C87.3008 37.2578 86.5977 37.9961 85.7539 38.6758C84.9102 39.3555 83.9727 39.9062 82.9414 40.3281C82.1211 40.6328 81.2305 40.8672 80.2695 41.0312C79.4492 41.1719 78.4883 41.2656 77.3867 41.3125C76.3086 41.3359 75.1602 41.2188 73.9414 40.9609C73.7773 41.6406 73.6836 42.2734 73.6602 42.8594C73.6602 43.4219 73.6836 43.9258 73.7305 44.3711C73.8008 44.8867 73.8945 45.3555 74.0117 45.7773C74.1523 46.1992 74.3281 46.6914 74.5391 47.2539C74.7266 47.7227 74.9375 48.2969 75.1719 48.9766C75.4297 49.6328 75.7344 50.3711 76.0859 51.1914C75.6641 51.1914 75.2539 51.2031 74.8555 51.2266C74.457 51.2266 74.0938 51.2383 73.7656 51.2617C73.3906 51.2852 73.0391 51.3086 72.7109 51.332C72.3359 51.3555 71.9141 51.4023 71.4453 51.4727C71.0469 51.5195 70.543 51.5898 69.9336 51.6836C69.3477 51.7773 68.6797 51.8945 67.9297 52.0352C68.4219 51.332 68.8086 50.6875 69.0898 50.1016C69.3945 49.4922 69.6172 48.9648 69.7578 48.5195C69.9219 48.0039 70.0273 47.5352 70.0742 47.1133C70.0977 46.7617 70.0977 46.1406 70.0742 45.25C70.0742 44.3594 70.0625 43.3281 70.0391 42.1562C70.0156 40.9844 69.9805 39.7539 69.9336 38.4648C69.8867 37.1758 69.8281 35.9688 69.7578 34.8438C69.6875 33.6953 69.6055 32.7109 69.5117 31.8906C69.4414 31.0703 69.3711 30.5312 69.3008 30.2734C69.207 29.9688 69.043 29.6406 68.8086 29.2891C68.6211 28.9844 68.3516 28.6328 68 28.2344C67.6719 27.8125 67.25 27.3438 66.7344 26.8281ZM74.0117 33.7539C73.9883 33.9883 73.9766 34.2344 73.9766 34.4922C73.9766 34.9844 74.0117 35.6172 74.082 36.3906C74.2461 36.7891 74.4453 37.1172 74.6797 37.375C74.9375 37.6328 75.207 37.832 75.4883 37.9727C75.793 38.1133 76.0977 38.207 76.4023 38.2539C76.707 38.3008 77.0117 38.3242 77.3164 38.3242C78.0195 38.3008 78.7578 38.1367 79.5312 37.832C80.5625 37.3867 81.2891 36.7539 81.7109 35.9336C82.1328 35.1133 82.3555 34.2695 82.3789 33.4023C82.4023 32.5352 82.25 31.7383 81.9219 31.0117C81.6172 30.2852 81.2422 29.793 80.7969 29.5352C80.4219 29.3711 79.9414 29.3008 79.3555 29.3242C78.8398 29.3477 78.1953 29.4766 77.4219 29.7109C76.6484 29.9453 75.6992 30.3672 74.5742 30.9766C74.457 31.3984 74.3633 31.7734 74.293 32.1016C74.2227 32.4297 74.1641 32.7227 74.1172 32.9805C74.0703 33.2617 74.0352 33.5195 74.0117 33.7539ZM90.3242 52.9844C90.5586 52.6328 90.7461 52.3047 90.8867 52C91.0273 51.6953 91.1445 51.4375 91.2383 51.2266C91.332 50.9688 91.4023 50.7344 91.4492 50.5234C91.4727 50.3828 91.4844 49.9727 91.4844 49.293C91.4844 48.6133 91.4609 47.7578 91.4141 46.7266C91.3906 45.6953 91.3555 44.5352 91.3086 43.2461C91.2852 41.957 91.2383 40.6445 91.168 39.3086C91.1211 37.9727 91.0625 36.6719 90.9922 35.4062C90.9453 34.1406 90.8984 33.0039 90.8516 31.9961C90.8047 30.9648 90.7578 30.1211 90.7109 29.4648C90.6641 28.8086 90.6289 28.4336 90.6055 28.3398C90.5586 28.1992 90.4766 28.0586 90.3594 27.918C90.125 27.6367 89.7266 27.3672 89.1641 27.1094C90.3594 26.8047 91.2734 26.5586 91.9062 26.3711C92.2812 26.2773 92.6094 26.1836 92.8906 26.0898C93.1484 25.9961 93.4062 25.9023 93.6641 25.8086C93.875 25.7148 94.1094 25.6094 94.3672 25.4922C94.625 25.3516 94.8594 25.1992 95.0703 25.0352C94.9531 25.7148 94.8594 26.3711 94.7891 27.0039C94.7188 27.6367 94.6602 28.2227 94.6133 28.7617C94.5664 29.3711 94.543 29.957 94.543 30.5195C94.4258 31.668 94.3555 32.9219 94.332 34.2812C94.332 35.6172 94.3438 36.9766 94.3672 38.3594C94.3906 39.7422 94.4375 41.0898 94.5078 42.4023C94.5781 43.7148 94.6484 44.9102 94.7188 45.9883C94.8125 47.043 94.8945 47.9453 94.9648 48.6953C95.0586 49.4219 95.1289 49.8906 95.1758 50.1016C95.2695 50.4531 95.3633 50.793 95.457 51.1211C95.5508 51.4023 95.6562 51.6953 95.7734 52C95.8906 52.3281 96.0312 52.5859 96.1953 52.7734H92.7852C92.4805 52.7734 92.1875 52.7852 91.9062 52.8086C91.6484 52.832 91.3789 52.8555 91.0977 52.8789C90.8164 52.9023 90.5586 52.9375 90.3242 52.9844ZM100.098 37.7617C100.215 37.6211 100.285 37.3633 100.309 36.9883C100.355 36.5898 100.449 36.1445 100.59 35.6523C100.754 35.1602 101.023 34.6445 101.398 34.1055C101.773 33.5664 102.383 33.0625 103.227 32.5938C104.047 32.125 104.844 31.8438 105.617 31.75C106.391 31.6562 107.129 31.6914 107.832 31.8555C108.535 32.0195 109.191 32.2773 109.801 32.6289C110.434 32.9805 111.008 33.3672 111.523 33.7891C111.875 34.0703 112.156 34.4805 112.367 35.0195C112.578 35.5352 112.742 36.1211 112.859 36.7773C112.977 37.4336 113.059 38.125 113.105 38.8516C113.176 39.5547 113.223 40.2461 113.246 40.9258C113.27 41.582 113.281 42.1914 113.281 42.7539C113.305 43.293 113.352 43.7383 113.422 44.0898C113.516 44.6055 113.68 45.0508 113.914 45.4258C114.148 45.7773 114.406 46.082 114.688 46.3398C114.969 46.5742 115.25 46.7617 115.531 46.9023C115.812 47.043 116.059 47.1484 116.27 47.2188C116.41 47.2891 116.539 47.3359 116.656 47.3594C116.891 47.4531 117.055 47.4531 117.148 47.3594C117.008 47.6875 116.879 47.9688 116.762 48.2031C116.645 48.4375 116.551 48.6367 116.48 48.8008C116.387 48.9883 116.305 49.1406 116.234 49.2578C116.164 49.3984 116.082 49.5273 115.988 49.6445C115.918 49.7617 115.824 49.8906 115.707 50.0312C115.59 50.1719 115.473 50.3242 115.355 50.4883C115.051 50.3711 114.758 50.2305 114.477 50.0664C114.219 49.9023 113.984 49.75 113.773 49.6094C113.516 49.4453 113.281 49.2812 113.07 49.1172C112.859 48.9531 112.66 48.7656 112.473 48.5547C112.309 48.3672 112.133 48.168 111.945 47.957C111.781 47.7461 111.641 47.5117 111.523 47.2539C111.383 47.5586 111.043 47.9922 110.504 48.5547C109.988 49.1172 109.309 49.6328 108.465 50.1016C107.621 50.5469 106.637 50.8633 105.512 51.0508C104.41 51.2383 103.191 51.1094 101.855 50.6641C101.27 50.4766 100.719 50.207 100.203 49.8555C99.6875 49.4805 99.2422 49.0352 98.8672 48.5195C98.5156 48.0039 98.2578 47.418 98.0938 46.7617C97.9531 46.082 97.9648 45.332 98.1289 44.5117C98.293 43.6914 98.5859 43 99.0078 42.4375C99.4297 41.875 99.9336 41.418 100.52 41.0664C101.105 40.7148 101.762 40.4453 102.488 40.2578C103.215 40.0703 103.965 39.9414 104.738 39.8711C105.348 39.8477 105.957 39.8828 106.566 39.9766C107.082 40.0703 107.621 40.2461 108.184 40.5039C108.746 40.7383 109.227 41.1016 109.625 41.5938C109.602 40.3516 109.555 39.3672 109.484 38.6406C109.438 37.8906 109.391 37.3164 109.344 36.918C109.25 36.4492 109.168 36.1211 109.098 35.9336C108.98 35.7695 108.852 35.582 108.711 35.3711C108.594 35.1602 108.441 34.9727 108.254 34.8086C108.066 34.6211 107.832 34.4688 107.551 34.3516C107.27 34.2344 106.941 34.1875 106.566 34.2109C106.168 34.2344 105.852 34.3398 105.617 34.5273C105.383 34.7148 105.195 34.9375 105.055 35.1953C104.938 35.4297 104.867 35.6875 104.844 35.9688C104.82 36.25 104.832 36.4961 104.879 36.707C104.926 36.8477 104.996 37 105.09 37.1641C105.184 37.3047 105.312 37.457 105.477 37.6211C105.641 37.7852 105.863 37.9258 106.145 38.043C105.605 38.1133 105.125 38.1719 104.703 38.2188C104.281 38.2422 103.918 38.2773 103.613 38.3242C103.262 38.3711 102.957 38.4062 102.699 38.4297C102.441 38.4531 102.137 38.5 101.785 38.5703C101.48 38.6172 101.105 38.6758 100.66 38.7461C100.215 38.8164 99.6992 38.9102 99.1133 39.0273C99.2539 38.8633 99.3828 38.7109 99.5 38.5703C99.6172 38.4062 99.7227 38.2656 99.8164 38.1484C99.9102 38.0078 100.004 37.8789 100.098 37.7617ZM105.371 41.9453C104.949 41.9688 104.527 42.0742 104.105 42.2617C103.684 42.4258 103.309 42.6719 102.98 43C102.652 43.3047 102.371 43.668 102.137 44.0898C101.926 44.4883 101.82 44.9336 101.82 45.4258C101.82 45.918 101.938 46.3516 102.172 46.7266C102.43 47.0781 102.758 47.3711 103.156 47.6055C103.578 47.8398 104.023 47.9805 104.492 48.0273C104.984 48.0742 105.465 48.0273 105.934 47.8867C106.379 47.7227 106.801 47.4648 107.199 47.1133C107.598 46.7383 107.938 46.3398 108.219 45.918C108.5 45.4727 108.699 45.0391 108.816 44.6172C108.934 44.1719 108.945 43.8086 108.852 43.5273C108.664 42.918 108.242 42.4961 107.586 42.2617C106.93 42.0039 106.191 41.8984 105.371 41.9453ZM117.887 48.1328C118.051 47.3594 118.168 46.6797 118.238 46.0938C118.332 45.4844 118.402 44.9805 118.449 44.582C118.496 44.1133 118.52 43.7148 118.52 43.3867C118.496 42.9883 118.473 42.5195 118.449 41.9805C118.449 41.418 118.426 40.8672 118.379 40.3281C118.355 39.7656 118.32 39.2734 118.273 38.8516C118.227 38.4062 118.168 38.0898 118.098 37.9023C118.004 37.7148 117.875 37.5156 117.711 37.3047C117.383 36.9062 116.902 36.5195 116.27 36.1445C116.809 36.0273 117.266 35.9336 117.641 35.8633C118.039 35.7695 118.367 35.6875 118.625 35.6172C118.906 35.5234 119.152 35.4414 119.363 35.3711C119.551 35.3008 119.773 35.2305 120.031 35.1602C120.242 35.1133 120.5 35.0547 120.805 34.9844C121.109 34.9141 121.461 34.832 121.859 34.7383L121.754 37.9375C122.504 37.0469 123.266 36.3789 124.039 35.9336C124.812 35.4883 125.539 35.1719 126.219 34.9844C126.992 34.75 127.754 34.6328 128.504 34.6328C129.441 34.6797 130.309 34.832 131.105 35.0898C131.926 35.3477 132.629 35.6523 133.215 36.0039C133.824 36.332 134.316 36.6836 134.691 37.0586C135.066 37.4336 135.289 37.7617 135.359 38.043C135.641 38.957 135.711 39.8008 135.57 40.5742C135.43 41.3242 135.242 42.0625 135.008 42.7891C134.797 43.4922 134.609 44.1953 134.445 44.8984C134.305 45.6016 134.363 46.3633 134.621 47.1836C134.715 47.3945 134.809 47.6055 134.902 47.8164C134.996 48.0039 135.113 48.1914 135.254 48.3789C135.395 48.5664 135.559 48.7188 135.746 48.8359C135.488 48.8125 135.23 48.8008 134.973 48.8008C134.715 48.7773 134.48 48.7539 134.27 48.7305C134.012 48.707 133.777 48.6836 133.566 48.6602C133.332 48.6367 133.016 48.625 132.617 48.625C131.938 48.625 130.883 48.6602 129.453 48.7305C129.664 48.2383 129.828 47.8281 129.945 47.5C130.086 47.1484 130.203 46.8672 130.297 46.6562C130.391 46.3984 130.461 46.1992 130.508 46.0586C130.789 45.3789 130.953 44.6055 131 43.7383C131.07 42.8711 131.012 41.9922 130.824 41.1016C130.754 40.7969 130.637 40.4336 130.473 40.0117C130.309 39.5898 130.086 39.1797 129.805 38.7812C129.547 38.3828 129.23 38.043 128.855 37.7617C128.504 37.4805 128.094 37.3164 127.625 37.2695C127.156 37.2227 126.629 37.3398 126.043 37.6211C125.48 37.9023 124.871 38.418 124.215 39.168C123.723 39.8008 123.336 40.5742 123.055 41.4883C122.797 42.2617 122.621 43.2344 122.527 44.4062C122.434 45.5547 122.574 46.9023 122.949 48.4492C122.621 48.4023 122.316 48.3789 122.035 48.3789C121.754 48.3555 121.52 48.332 121.332 48.3086C121.098 48.2852 120.887 48.2617 120.699 48.2383C120.488 48.2383 120.254 48.2266 119.996 48.2031C119.762 48.2031 119.469 48.2031 119.117 48.2031C118.766 48.1797 118.355 48.1562 117.887 48.1328ZM137.469 29.8516C138.172 29.9219 138.758 29.9805 139.227 30.0273C139.719 30.0742 140.117 30.1094 140.422 30.1328C140.773 30.1562 141.055 30.168 141.266 30.168C141.477 30.1914 141.758 30.1914 142.109 30.168C142.414 30.1445 142.812 30.1211 143.305 30.0977C143.797 30.0508 144.418 29.9805 145.168 29.8867C145.004 30.1211 144.875 30.332 144.781 30.5195C144.688 30.6836 144.605 30.8359 144.535 30.9766L144.324 31.3984C144.277 31.5391 144.23 31.6797 144.184 31.8203C144.137 31.9375 144.09 32.0781 144.043 32.2422C144.02 32.4062 143.996 32.582 143.973 32.7695H149.387L148.895 35.6172L143.938 35.3359C143.82 36.5312 143.738 37.457 143.691 38.1133C143.645 38.7695 143.598 39.25 143.551 39.5547L143.48 40.1875C143.41 41.0781 143.34 42.0508 143.27 43.1055C143.199 44.1367 143.176 45.0977 143.199 45.9883C143.223 46.8789 143.305 47.6289 143.445 48.2383C143.586 48.8242 143.832 49.1172 144.184 49.1172C144.535 49.1172 144.863 49.0234 145.168 48.8359C145.473 48.6484 145.73 48.4258 145.941 48.168C146.176 47.9102 146.352 47.6523 146.469 47.3945C146.586 47.1133 146.645 46.9023 146.645 46.7617C146.645 46.6211 146.609 46.457 146.539 46.2695C146.422 45.918 146.211 45.4727 145.906 44.9336C146.586 45.0977 147.184 45.2617 147.699 45.4258C147.957 45.5195 148.191 45.6133 148.402 45.707C148.637 45.8008 148.906 45.9062 149.211 46.0234C149.469 46.1406 149.797 46.2812 150.195 46.4453C150.594 46.6094 151.062 46.8086 151.602 47.043C151.086 47.1367 150.711 47.2891 150.477 47.5C150.336 47.5938 150.23 47.6992 150.16 47.8164C149.996 48.0742 149.809 48.4258 149.598 48.8711C149.387 49.293 149.07 49.7148 148.648 50.1367C148.227 50.5586 147.652 50.9336 146.926 51.2617C146.223 51.5898 145.273 51.7773 144.078 51.8242C142.836 51.8711 141.887 51.6602 141.23 51.1914C140.598 50.7227 140.129 50.1836 139.824 49.5742C139.543 48.9414 139.379 48.3203 139.332 47.7109C139.285 47.1016 139.25 46.6914 139.227 46.4805C139.203 46.2695 139.203 45.7422 139.227 44.8984C139.25 44.0547 139.285 43.1289 139.332 42.1211C139.379 41.0898 139.426 40.1055 139.473 39.168C139.52 38.207 139.543 37.5039 139.543 37.0586C139.543 36.8242 139.555 36.5781 139.578 36.3203C139.578 36.1094 139.578 35.8867 139.578 35.6523C139.602 35.3945 139.613 35.1484 139.613 34.9141L134.516 34.8789L134.305 32.875L139.438 33.0156C139.391 32.7578 139.332 32.5234 139.262 32.3125C139.215 32.0781 139.168 31.8906 139.121 31.75C139.051 31.5859 138.98 31.4453 138.91 31.3281C138.816 31.2109 138.711 31.082 138.594 30.9414C138.477 30.8242 138.324 30.6719 138.137 30.4844C137.949 30.2969 137.727 30.0859 137.469 29.8516ZM152.797 37.7617C152.914 37.6211 152.984 37.3633 153.008 36.9883C153.055 36.5898 153.148 36.1445 153.289 35.6523C153.453 35.1602 153.723 34.6445 154.098 34.1055C154.473 33.5664 155.082 33.0625 155.926 32.5938C156.746 32.125 157.543 31.8438 158.316 31.75C159.09 31.6562 159.828 31.6914 160.531 31.8555C161.234 32.0195 161.891 32.2773 162.5 32.6289C163.133 32.9805 163.707 33.3672 164.223 33.7891C164.574 34.0703 164.855 34.4805 165.066 35.0195C165.277 35.5352 165.441 36.1211 165.559 36.7773C165.676 37.4336 165.758 38.125 165.805 38.8516C165.875 39.5547 165.922 40.2461 165.945 40.9258C165.969 41.582 165.98 42.1914 165.98 42.7539C166.004 43.293 166.051 43.7383 166.121 44.0898C166.215 44.6055 166.379 45.0508 166.613 45.4258C166.848 45.7773 167.105 46.082 167.387 46.3398C167.668 46.5742 167.949 46.7617 168.23 46.9023C168.512 47.043 168.758 47.1484 168.969 47.2188C169.109 47.2891 169.238 47.3359 169.355 47.3594C169.59 47.4531 169.754 47.4531 169.848 47.3594C169.707 47.6875 169.578 47.9688 169.461 48.2031C169.344 48.4375 169.25 48.6367 169.18 48.8008C169.086 48.9883 169.004 49.1406 168.934 49.2578C168.863 49.3984 168.781 49.5273 168.688 49.6445C168.617 49.7617 168.523 49.8906 168.406 50.0312C168.289 50.1719 168.172 50.3242 168.055 50.4883C167.75 50.3711 167.457 50.2305 167.176 50.0664C166.918 49.9023 166.684 49.75 166.473 49.6094C166.215 49.4453 165.98 49.2812 165.77 49.1172C165.559 48.9531 165.359 48.7656 165.172 48.5547C165.008 48.3672 164.832 48.168 164.645 47.957C164.48 47.7461 164.34 47.5117 164.223 47.2539C164.082 47.5586 163.742 47.9922 163.203 48.5547C162.688 49.1172 162.008 49.6328 161.164 50.1016C160.32 50.5469 159.336 50.8633 158.211 51.0508C157.109 51.2383 155.891 51.1094 154.555 50.6641C153.969 50.4766 153.418 50.207 152.902 49.8555C152.387 49.4805 151.941 49.0352 151.566 48.5195C151.215 48.0039 150.957 47.418 150.793 46.7617C150.652 46.082 150.664 45.332 150.828 44.5117C150.992 43.6914 151.285 43 151.707 42.4375C152.129 41.875 152.633 41.418 153.219 41.0664C153.805 40.7148 154.461 40.4453 155.188 40.2578C155.914 40.0703 156.664 39.9414 157.438 39.8711C158.047 39.8477 158.656 39.8828 159.266 39.9766C159.781 40.0703 160.32 40.2461 160.883 40.5039C161.445 40.7383 161.926 41.1016 162.324 41.5938C162.301 40.3516 162.254 39.3672 162.184 38.6406C162.137 37.8906 162.09 37.3164 162.043 36.918C161.949 36.4492 161.867 36.1211 161.797 35.9336C161.68 35.7695 161.551 35.582 161.41 35.3711C161.293 35.1602 161.141 34.9727 160.953 34.8086C160.766 34.6211 160.531 34.4688 160.25 34.3516C159.969 34.2344 159.641 34.1875 159.266 34.2109C158.867 34.2344 158.551 34.3398 158.316 34.5273C158.082 34.7148 157.895 34.9375 157.754 35.1953C157.637 35.4297 157.566 35.6875 157.543 35.9688C157.52 36.25 157.531 36.4961 157.578 36.707C157.625 36.8477 157.695 37 157.789 37.1641C157.883 37.3047 158.012 37.457 158.176 37.6211C158.34 37.7852 158.562 37.9258 158.844 38.043C158.305 38.1133 157.824 38.1719 157.402 38.2188C156.98 38.2422 156.617 38.2773 156.312 38.3242C155.961 38.3711 155.656 38.4062 155.398 38.4297C155.141 38.4531 154.836 38.5 154.484 38.5703C154.18 38.6172 153.805 38.6758 153.359 38.7461C152.914 38.8164 152.398 38.9102 151.812 39.0273C151.953 38.8633 152.082 38.7109 152.199 38.5703C152.316 38.4062 152.422 38.2656 152.516 38.1484C152.609 38.0078 152.703 37.8789 152.797 37.7617ZM158.07 41.9453C157.648 41.9688 157.227 42.0742 156.805 42.2617C156.383 42.4258 156.008 42.6719 155.68 43C155.352 43.3047 155.07 43.668 154.836 44.0898C154.625 44.4883 154.52 44.9336 154.52 45.4258C154.52 45.918 154.637 46.3516 154.871 46.7266C155.129 47.0781 155.457 47.3711 155.855 47.6055C156.277 47.8398 156.723 47.9805 157.191 48.0273C157.684 48.0742 158.164 48.0273 158.633 47.8867C159.078 47.7227 159.5 47.4648 159.898 47.1133C160.297 46.7383 160.637 46.3398 160.918 45.918C161.199 45.4727 161.398 45.0391 161.516 44.6172C161.633 44.1719 161.645 43.8086 161.551 43.5273C161.363 42.918 160.941 42.4961 160.285 42.2617C159.629 42.0039 158.891 41.8984 158.07 41.9453ZM167.176 32.6289C167.574 32.6992 167.984 32.7578 168.406 32.8047C168.805 32.8281 169.168 32.8516 169.496 32.875C169.871 32.8984 170.234 32.9102 170.586 32.9102C170.938 32.9102 171.336 32.8984 171.781 32.875C172.156 32.8516 172.602 32.8164 173.117 32.7695C173.656 32.7227 174.242 32.6523 174.875 32.5586C174.5 32.7695 174.207 32.9922 173.996 33.2266C173.785 33.4609 173.621 33.6719 173.504 33.8594C173.363 34.0938 173.27 34.3047 173.223 34.4922C173.176 34.6797 173.188 35.0664 173.258 35.6523C173.328 36.2383 173.422 36.918 173.539 37.6914C173.68 38.4648 173.832 39.2734 173.996 40.1172C174.16 40.9609 174.324 41.7344 174.488 42.4375C174.676 43.1406 174.84 43.7266 174.98 44.1953C175.145 44.6641 175.273 44.8867 175.367 44.8633C175.461 44.8633 175.602 44.6289 175.789 44.1602C176 43.6914 176.234 43.1172 176.492 42.4375C176.75 41.7344 177.02 40.9727 177.301 40.1523C177.582 39.3086 177.828 38.5234 178.039 37.7969C178.25 37.0703 178.414 36.4609 178.531 35.9688C178.672 35.4531 178.73 35.1484 178.707 35.0547C178.637 34.9609 178.555 34.832 178.461 34.668C178.297 34.4102 177.934 33.9648 177.371 33.332C178.051 33.3789 178.637 33.4258 179.129 33.4727C179.621 33.4961 180.02 33.5312 180.324 33.5781C180.676 33.625 180.957 33.6602 181.168 33.6836C181.379 33.707 181.684 33.707 182.082 33.6836C182.41 33.6836 182.844 33.6719 183.383 33.6484C183.945 33.6016 184.637 33.5312 185.457 33.4375C184.848 33.7891 184.344 34.1055 183.945 34.3867C183.57 34.6445 183.277 34.8672 183.066 35.0547C182.809 35.2891 182.621 35.4883 182.504 35.6523C182.34 35.957 182.047 36.6836 181.625 37.832C181.438 38.3242 181.203 38.9336 180.922 39.6602C180.664 40.3867 180.348 41.2656 179.973 42.2969C179.621 43.3047 179.199 44.4883 178.707 45.8477C178.215 47.207 177.664 48.7656 177.055 50.5234L173.645 50.875C173.199 49.3984 172.836 48.168 172.555 47.1836C172.297 46.1758 172.086 45.3672 171.922 44.7578C171.734 44.0547 171.594 43.5039 171.5 43.1055C171.383 42.6602 171.242 42.0156 171.078 41.1719C170.914 40.3047 170.75 39.4258 170.586 38.5352C170.422 37.6445 170.258 36.8477 170.094 36.1445C169.93 35.418 169.801 34.9727 169.707 34.8086C169.613 34.6914 169.449 34.5273 169.215 34.3164C169.027 34.1289 168.77 33.9062 168.441 33.6484C168.113 33.3672 167.691 33.0273 167.176 32.6289ZM192.805 46.3398C193.461 46.3398 194.07 46.2695 194.633 46.1289C195.102 46.0117 195.547 45.8242 195.969 45.5664C196.414 45.2852 196.707 44.875 196.848 44.3359C197.316 44.4297 197.715 44.5117 198.043 44.582C198.371 44.6289 198.652 44.6758 198.887 44.7227C199.145 44.793 199.367 44.8398 199.555 44.8633C199.742 44.9102 199.965 44.957 200.223 45.0039C200.457 45.0508 200.738 45.1094 201.066 45.1797C201.418 45.2266 201.828 45.2969 202.297 45.3906C201.945 45.3438 201.582 45.3789 201.207 45.4961C200.855 45.6133 200.516 45.7422 200.188 45.8828C199.812 46.0469 199.461 46.2461 199.133 46.4805C198.922 46.6211 198.676 46.832 198.395 47.1133C198.137 47.3945 197.762 47.6641 197.27 47.9219C196.777 48.1797 196.121 48.4023 195.301 48.5898C194.504 48.7539 193.473 48.8125 192.207 48.7656C190.684 48.7188 189.406 48.4492 188.375 47.957C187.344 47.4414 186.512 46.8203 185.879 46.0938C185.246 45.3438 184.789 44.5352 184.508 43.668C184.227 42.8008 184.074 41.9922 184.051 41.2422C184.027 40.4922 184.25 39.707 184.719 38.8867C185.188 38.0664 185.844 37.3164 186.688 36.6367C187.555 35.957 188.598 35.4062 189.816 34.9844C191.035 34.5391 192.371 34.3164 193.824 34.3164C194.668 34.3164 195.441 34.4219 196.145 34.6328C196.871 34.8203 197.527 35.0781 198.113 35.4062C198.723 35.7344 199.25 36.1094 199.695 36.5312C200.141 36.9297 200.516 37.3398 200.82 37.7617C201.125 38.207 201.383 38.6758 201.594 39.168C201.781 39.5898 201.934 40.0703 202.051 40.6094C202.168 41.1484 202.203 41.6992 202.156 42.2617C200.375 42.3086 198.934 42.3438 197.832 42.3672C196.754 42.3906 195.91 42.4023 195.301 42.4023H193.719H192.523C192.102 42.4023 191.551 42.4141 190.871 42.4375C190.191 42.4609 189.359 42.4961 188.375 42.543C188.492 43.4805 188.785 44.207 189.254 44.7227C189.746 45.2148 190.262 45.5898 190.801 45.8477C191.41 46.1289 192.078 46.293 192.805 46.3398ZM189.641 40.0117C190.391 40.0586 191.012 40.0938 191.504 40.1172C192.02 40.1406 192.441 40.1641 192.77 40.1875C193.121 40.2109 193.402 40.2227 193.613 40.2227H194.492C195.078 40.2227 196.168 40.1875 197.762 40.1172C197.691 39.0859 197.469 38.3008 197.094 37.7617C196.742 37.2227 196.367 36.8242 195.969 36.5664C195.5 36.2852 194.984 36.1211 194.422 36.0742C192.898 36.0977 191.762 36.4141 191.012 37.0234C190.285 37.6328 189.828 38.6289 189.641 40.0117ZM203.211 35.1602C203.656 35.1836 204.055 35.1953 204.406 35.1953C204.781 35.1719 205.098 35.1484 205.355 35.125C205.66 35.1016 205.93 35.0781 206.164 35.0547C206.516 35.0078 206.879 34.9492 207.254 34.8789C207.582 34.832 207.922 34.7734 208.273 34.7031C208.648 34.6094 209.012 34.5039 209.363 34.3867C209.223 34.7383 209.105 35.043 209.012 35.3008C208.918 35.5586 208.848 35.7812 208.801 35.9688C208.73 36.1797 208.695 36.3555 208.695 36.4961C208.672 36.6602 208.66 36.8594 208.66 37.0938C208.637 37.4922 208.637 38.1367 208.66 39.0273C209.879 37.9727 210.898 37.1523 211.719 36.5664C212.562 35.9805 213.23 35.5234 213.723 35.1953C214.309 34.8203 214.766 34.5742 215.094 34.457C215.961 34.3164 216.723 34.5156 217.379 35.0547C217.66 35.2891 217.93 35.6055 218.188 36.0039C218.445 36.3789 218.668 36.8828 218.855 37.5156C219.043 38.1484 219.184 38.9102 219.277 39.8008C219.371 40.668 219.383 41.7109 219.312 42.9297C218.82 42.9766 218.375 43.0234 217.977 43.0703C217.602 43.1172 217.285 43.1523 217.027 43.1758C216.723 43.2227 216.441 43.2461 216.184 43.2461L215.234 43.3516C214.906 43.3984 214.496 43.4453 214.004 43.4922C213.535 43.5156 212.961 43.5625 212.281 43.6328C213.266 42.8359 213.898 42.1445 214.18 41.5586C214.484 40.9492 214.613 40.4453 214.566 40.0469C214.52 39.6016 214.309 39.2148 213.934 38.8867C213.488 38.6289 213.008 38.5352 212.492 38.6055C212.047 38.6523 211.531 38.8516 210.945 39.2031C210.359 39.5547 209.738 40.2109 209.082 41.1719C209.129 42.6719 209.176 43.9141 209.223 44.8984C209.293 45.8828 209.352 46.6797 209.398 47.2891C209.469 47.9922 209.527 48.543 209.574 48.9414C209.645 49.293 209.785 49.668 209.996 50.0664C210.16 50.3945 210.395 50.7578 210.699 51.1562C211.004 51.5547 211.402 51.9531 211.895 52.3516C210.863 52.3047 210.02 52.3047 209.363 52.3516C208.965 52.375 208.613 52.3984 208.309 52.4219C207.98 52.4688 207.629 52.5156 207.254 52.5625C206.926 52.6094 206.539 52.6562 206.094 52.7031C205.672 52.7734 205.203 52.8438 204.688 52.9141C204.875 52.6562 205.027 52.3516 205.145 52C205.262 51.6719 205.355 51.3555 205.426 51.0508C205.52 50.6992 205.59 50.3359 205.637 49.9609C205.66 49.6328 205.672 49.1406 205.672 48.4844C205.695 47.8281 205.684 47.0898 205.637 46.2695C205.613 45.4258 205.578 44.5586 205.531 43.668C205.484 42.7539 205.426 41.8984 205.355 41.1016C205.285 40.3047 205.203 39.6133 205.109 39.0273C205.039 38.418 204.957 37.9961 204.863 37.7617C204.746 37.4805 204.605 37.1992 204.441 36.918C204.301 36.6602 204.125 36.3906 203.914 36.1094C203.703 35.8047 203.469 35.4883 203.211 35.1602ZM236.293 31.9258C236.082 32.4414 235.895 32.9102 235.73 33.332C235.59 33.7539 235.461 34.1289 235.344 34.457C235.227 34.832 235.121 35.1602 235.027 35.4414C234.934 35.7695 234.828 36.1445 234.711 36.5664C234.594 36.9414 234.441 37.4102 234.254 37.9727C234.09 38.5117 233.891 39.1562 233.656 39.9062C233.469 38.7812 233.129 37.8906 232.637 37.2344C232.145 36.5547 231.641 36.0273 231.125 35.6523C230.516 35.2305 229.859 34.9258 229.156 34.7383C227.891 34.5273 226.977 34.5508 226.414 34.8086C225.852 35.0664 225.477 35.3945 225.289 35.793C225.195 35.957 225.09 36.168 224.973 36.4258C224.879 36.6602 224.797 36.9062 224.727 37.1641C224.68 37.4219 224.668 37.6797 224.691 37.9375C224.715 38.1953 224.82 38.4062 225.008 38.5703C225.125 38.6875 225.43 38.8516 225.922 39.0625C226.414 39.25 227 39.4727 227.68 39.7305C228.383 39.9648 229.121 40.2227 229.895 40.5039C230.691 40.7852 231.441 41.0664 232.145 41.3477C232.848 41.6289 233.457 41.9102 233.973 42.1914C234.488 42.4727 234.828 42.7305 234.992 42.9648C235.133 43.1992 235.285 43.5156 235.449 43.9141C235.637 44.2891 235.766 44.7109 235.836 45.1797C235.93 45.625 235.953 46.0938 235.906 46.5859C235.883 47.0547 235.754 47.5234 235.52 47.9922C235.285 48.4609 234.91 48.8945 234.395 49.293C233.902 49.6914 233.234 50.0195 232.391 50.2773C231.406 50.582 230.457 50.6641 229.543 50.5234C228.629 50.3828 227.785 50.1719 227.012 49.8906C226.262 49.6094 225.605 49.3398 225.043 49.082C224.48 48.8008 224.082 48.6836 223.848 48.7305C223.59 48.7773 223.297 48.9062 222.969 49.1172C222.641 49.3281 222.324 49.5508 222.02 49.7852C221.738 49.9961 221.492 50.1953 221.281 50.3828C221.07 50.5469 220.965 50.6055 220.965 50.5586C220.965 50.5117 221 50.3711 221.07 50.1367C221.164 49.9023 221.258 49.6211 221.352 49.293C221.469 48.9414 221.574 48.5664 221.668 48.168C221.785 47.7461 221.867 47.3477 221.914 46.9727C221.961 46.668 222.02 46.293 222.09 45.8477C222.137 45.4492 222.195 44.9688 222.266 44.4062C222.359 43.8203 222.465 43.1172 222.582 42.2969C222.699 42.9062 222.863 43.4336 223.074 43.8789C223.309 44.3242 223.531 44.7109 223.742 45.0391C224 45.4141 224.246 45.7305 224.48 45.9883C224.832 46.3164 225.242 46.6211 225.711 46.9023C226.203 47.1836 226.695 47.4297 227.188 47.6406C227.68 47.8281 228.148 47.9453 228.594 47.9922C229.039 48.0391 229.414 47.9922 229.719 47.8516C230.023 47.7109 230.281 47.4531 230.492 47.0781C230.727 46.7031 230.891 46.293 230.984 45.8477C231.078 45.4023 231.113 44.9805 231.09 44.582C231.066 44.1602 230.961 43.8203 230.773 43.5625C230.633 43.3984 230.305 43.1875 229.789 42.9297C229.297 42.6719 228.699 42.3906 227.996 42.0859C227.316 41.7812 226.59 41.4648 225.816 41.1367C225.066 40.8086 224.352 40.4805 223.672 40.1523C223.016 39.8008 222.465 39.4727 222.02 39.168C221.598 38.8398 221.363 38.5469 221.316 38.2891C221.27 37.9141 221.234 37.5039 221.211 37.0586C221.188 36.5898 221.211 36.1328 221.281 35.6875C221.375 35.2188 221.539 34.7734 221.773 34.3516C222.031 33.9297 222.406 33.5781 222.898 33.2969C223.227 33.1094 223.66 32.9688 224.199 32.875C224.738 32.7812 225.336 32.7344 225.992 32.7344C226.648 32.7109 227.328 32.7344 228.031 32.8047C228.734 32.8516 229.402 32.9219 230.035 33.0156C230.691 33.0859 231.277 33.1797 231.793 33.2969C232.332 33.4141 232.742 33.5195 233.023 33.6133C233.352 33.7305 233.703 33.7422 234.078 33.6484C234.406 33.5781 234.758 33.4258 235.133 33.1914C235.508 32.957 235.895 32.5352 236.293 31.9258ZM246.98 36.25C247.59 36.25 248.223 36.3672 248.879 36.6016C249.535 36.8125 250.168 37.0938 250.777 37.4453C251.387 37.7734 251.938 38.1367 252.43 38.5352C252.945 38.9102 253.367 39.2734 253.695 39.625C254.281 40.2578 254.68 41.1133 254.891 42.1914C255.125 43.2461 255.172 44.3359 255.031 45.4609C254.891 46.5625 254.562 47.6055 254.047 48.5898C253.531 49.5742 252.816 50.3008 251.902 50.7695C251.246 51.0977 250.602 51.3555 249.969 51.543C249.336 51.7305 248.727 51.8711 248.141 51.9648C247.555 52.0586 247.004 52.1055 246.488 52.1055C245.973 52.1055 245.527 52.0938 245.152 52.0703C244.449 52.0234 243.711 51.7773 242.938 51.332C242.188 50.8867 241.473 50.3359 240.793 49.6797C240.137 49.0234 239.574 48.3086 239.105 47.5352C238.637 46.7383 238.355 45.9883 238.262 45.2852C238.121 44.3242 238.098 43.3164 238.191 42.2617C238.285 41.207 238.625 40.2344 239.211 39.3438C239.82 38.4531 240.734 37.7148 241.953 37.1289C243.195 36.543 244.871 36.25 246.98 36.25ZM245.82 49.8906C246.078 49.9375 246.43 49.8789 246.875 49.7148C247.32 49.5273 247.754 49.2344 248.176 48.8359C248.621 48.4375 249.008 47.9336 249.336 47.3242C249.688 46.6914 249.898 45.9297 249.969 45.0391C250.039 44.1719 250.039 43.375 249.969 42.6484C249.922 41.9219 249.816 41.2891 249.652 40.75C249.488 40.1875 249.301 39.7305 249.09 39.3789C248.879 39.0273 248.656 38.7812 248.422 38.6406C248.023 38.4297 247.543 38.2656 246.98 38.1484C246.418 38.0078 245.938 38.0312 245.539 38.2188C245.352 38.3125 245.117 38.5117 244.836 38.8164C244.555 39.1211 244.273 39.5078 243.992 39.9766C243.711 40.4219 243.453 40.9375 243.219 41.5234C243.008 42.1094 242.855 42.7188 242.762 43.3516C242.668 43.9844 242.645 44.6641 242.691 45.3906C242.762 46.1172 242.914 46.8086 243.148 47.4648C243.383 48.0977 243.711 48.6484 244.133 49.1172C244.578 49.5625 245.141 49.8203 245.82 49.8906Z" fill="black"/>
</svg>
